Simulation
nRows=15
nColumns=15
endheader
time  TH_x TH_y TH_z SC_y  SC_z  SC_x  AC_y  AC_z  AC_x  GH_y  GH_z  GH_yy  EL_x  PS_y
7.203000000000001  0.000000  0.000000  0.000000  -32.61139598679311  1.9877302617629864  -15.413446904696837  56.95069310654635  19.228495936878357  8.09673224209377  43.27666081183512  17.849465603988495  17.563957503463797  13.196632694111853  120.000000
7.251020000000001  0.000000  0.000000  0.000000  -32.57358800200741  1.5549178614925598  -15.878908565253496  56.79182998339826  19.47611863607999  8.188918373274673  43.207477264138234  21.197691860990783  16.464279772022635  12.600819962209883  120.000000
7.2990400000000015  0.000000  0.000000  0.000000  -32.73981738747371  1.0980786463992516  -16.340751203551307  56.644017181996716  19.903298710568823  8.333556300682913  43.47329279416067  24.84175349178854  14.971168337645517  12.116996179316423  120.000000
7.347060000000001  0.000000  0.000000  0.000000  -33.07405900714246  0.6459487722041536  -16.797516920741433  56.54895786422854  20.50265825681403  8.507903547890269  43.97594996759864  28.743749564570198  13.20919367298487  11.729691872195074  120.000000
7.395080000000001  0.000000  0.000000  0.000000  -33.51896726459618  0.23589426169211586  -17.248983853214803  56.53322882687807  21.254155745468633  8.69568124184964  44.63795448378277  32.86071734111086  11.281196040006026  11.416262737389212  120.000000
7.443100000000001  0.000000  0.000000  0.000000  -34.021272722227  -0.09735629569005841  -17.69510219663246  56.59360558295645  22.121917128043435  8.895611906059202  45.392547473948476  37.13726701483407  9.276061137399587  11.15698563139631  120.000000
7.491120000000001  0.000000  0.000000  0.000000  -34.54425890294063  -0.3304845208899206  -18.13370800972522  56.701057054018335  23.061233660206437  9.121155918605133  46.1821714551369  41.506782160798295  7.260546650192019  10.939340152917488  120.000000
7.5391400000000015  0.000000  0.000000  0.000000  -35.069071433003586  -0.45261674255402  -18.557826500440637  56.818194697254214  24.03196743018535  9.391900389088194  46.95881208248715  45.90151800377976  5.276100707220467  10.756359586858238  120.000000
7.587160000000001  0.000000  0.000000  0.000000  -35.58857167742329  -0.4625142088194861  -18.960150177912606  56.91416348594553  25.008512113607946  9.725154495861807  47.680692978533926  50.258928556047216  3.3456964259631823  10.604198065347418  120.000000
7.635180000000001  0.000000  0.000000  0.000000  -36.10184914183244  -0.3684642162903466  -19.33825845742913  56.97016160216084  25.976884465244968  10.130863071907138  48.31138896380989  54.518943183398655  1.4815736886698438  10.48046593812171  120.000000
7.683200000000001  0.000000  0.000000  0.000000  -36.60710218924674  -0.18577972126634584  -19.695744719028653  56.9799665961424  26.926892004472887  10.609199707959217  48.81974324502572  58.61901061506417  -0.3102318994415242  10.38496834578501  120.000000
7.731220000000001  0.000000  0.000000  0.000000  -37.10301409536834  0.0684255574269293  -20.04026203818545  56.94560703424556  27.848585756620565  11.153044065615886  49.17847374036591  62.49659236911406  -2.027645254747469  10.318612597079976  120.000000
7.7792400000000015  0.000000  0.000000  0.000000  -37.590459072434314  0.37816558092143876  -20.38245686457337  56.87278065800638  28.73457660345397  11.752613736559589  49.36539344346812  66.09503818599705  -3.6712574204720356  10.281279563701114  120.000000
7.827260000000001  0.000000  0.000000  0.000000  -38.07116744267016  0.7262330518167457  -20.729369510956705  56.772682270282075  29.578537873426868  12.396856975859766  49.369495902639535  69.36678391907559  -5.2442250929634024  10.271141090211712  120.000000
7.875280000000001  0.000000  0.000000  0.000000  -38.54225794685118  1.0937126516561724  -21.08036496377361  56.665326555973834  30.37779108135792  13.071749714122067  49.19173151918102  72.27381870435974  -6.748818542990559  10.285028673587679  120.000000
